<mxfile host="app.diagrams.net" agent="Mozilla/5.0 (Macintosh; Intel Mac OS X 10_15_7) AppleWebKit/537.36 (KHTML, like Gecko) Chrome/134.0.0.0 Safari/537.36 Edg/134.0.0.0" version="26.1.1">
  <diagram name="Page-1" id="1sjjesDyPGoVqtrBQITE">
    <mxGraphModel dx="815" dy="456" grid="1" gridSize="10" guides="1" tooltips="1" connect="1" arrows="1" fold="1" page="1" pageScale="1" pageWidth="850" pageHeight="1100" math="0" shadow="0">
      <root>
        <mxCell id="0" />
        <mxCell id="1" parent="0" />
        <mxCell id="UwkMOaes8_fVt1T53pwL-9" style="edgeStyle=orthogonalEdgeStyle;rounded=0;orthogonalLoop=1;jettySize=auto;html=1;" edge="1" parent="1" source="UwkMOaes8_fVt1T53pwL-1" target="UwkMOaes8_fVt1T53pwL-6">
          <mxGeometry relative="1" as="geometry" />
        </mxCell>
        <mxCell id="UwkMOaes8_fVt1T53pwL-1" value="Cloudflare worker" style="rounded=0;whiteSpace=wrap;html=1;align=center;verticalAlign=middle;" vertex="1" parent="1">
          <mxGeometry x="325" y="415" width="110" height="50" as="geometry" />
        </mxCell>
        <mxCell id="UwkMOaes8_fVt1T53pwL-10" style="edgeStyle=orthogonalEdgeStyle;rounded=0;orthogonalLoop=1;jettySize=auto;html=1;exitX=0.5;exitY=1;exitDx=0;exitDy=0;" edge="1" parent="1" source="UwkMOaes8_fVt1T53pwL-2" target="UwkMOaes8_fVt1T53pwL-1">
          <mxGeometry relative="1" as="geometry">
            <mxPoint x="390" y="410" as="targetPoint" />
          </mxGeometry>
        </mxCell>
        <mxCell id="UwkMOaes8_fVt1T53pwL-2" value="WeChat server" style="rounded=0;whiteSpace=wrap;html=1;" vertex="1" parent="1">
          <mxGeometry x="320" y="300" width="120" height="50" as="geometry" />
        </mxCell>
        <mxCell id="UwkMOaes8_fVt1T53pwL-4" style="edgeStyle=orthogonalEdgeStyle;rounded=0;orthogonalLoop=1;jettySize=auto;html=1;" edge="1" parent="1" source="UwkMOaes8_fVt1T53pwL-3" target="UwkMOaes8_fVt1T53pwL-2">
          <mxGeometry relative="1" as="geometry" />
        </mxCell>
        <mxCell id="UwkMOaes8_fVt1T53pwL-3" value="WeChat user" style="rounded=0;whiteSpace=wrap;html=1;" vertex="1" parent="1">
          <mxGeometry x="320" y="190" width="120" height="60" as="geometry" />
        </mxCell>
        <mxCell id="UwkMOaes8_fVt1T53pwL-6" value="" style="rounded=0;whiteSpace=wrap;html=1;" vertex="1" parent="1">
          <mxGeometry x="295" y="510" width="170" height="50" as="geometry" />
        </mxCell>
        <mxCell id="UwkMOaes8_fVt1T53pwL-7" value="Gemini" style="rounded=1;whiteSpace=wrap;html=1;" vertex="1" parent="1">
          <mxGeometry x="310" y="520" width="60" height="30" as="geometry" />
        </mxCell>
        <mxCell id="UwkMOaes8_fVt1T53pwL-8" value="Grok" style="rounded=1;whiteSpace=wrap;html=1;" vertex="1" parent="1">
          <mxGeometry x="390" y="520" width="60" height="30" as="geometry" />
        </mxCell>
      </root>
    </mxGraphModel>
  </diagram>
</mxfile>
